<svg id="a51c6f4d-083f-4410-accf-15dd55fcf5de" data-name="Logo de Mercado Libre" xmlns="http://www.w3.org/2000/svg" viewBox="0 0 81.9 81.9"><defs><style>.bea96a05-105f-4be8-90e5-08882a002706{fill:#2d3277;}.b0bdce10-da67-4f3d-8f18-b2c73653b289{fill:#ffd100;}.a322019a-cf47-4a06-9709-d97af11e2eb6{fill:#fff;}</style></defs><title>Mesa de trabajo 1</title><path id="e76cfa09-9707-4c06-8245-79665dc76c81" data-name="Fondo" class="bea96a05-105f-4be8-90e5-08882a002706" d="M81.8,39.1c-.1-14.7-18.3-26.5-40.6-26.5h-.5a58.56,58.56,0,0,0-21.1,4C8.3,21.1.6,29.1.1,38.3v4.2c.4,7.3,4.4,13.9,11.3,18.8,7.4,5.3,17.5,8,29.2,8h.6c12-.1,22.3-3.1,29.8-8.5,7-5.2,10.9-12.4,10.9-20.2Z"/><path id="bd07e521-dad7-406a-b954-4d6fa758459e" data-name="Fondo de manos (inferior)" class="b0bdce10-da67-4f3d-8f18-b2c73653b289" d="M80,40.7h0a3.4,3.4,0,0,1-.1,1c-.9,5.7-4.7,11-11.1,15.1-7.4,4.8-17.2,7.5-27.7,7.6h-.5c-21.3,0-38.7-11-38.8-24.6a7.08,7.08,0,0,1,.1-1.4l2.2.5c9.8,2.1,13.5,4.3,14.4,5a3.4,3.4,0,0,0-.2,1.4,4.23,4.23,0,0,0,4.2,4.2h.6a5,5,0,0,0,3.1,3.4,4,4,0,0,0,1.5.3,2.2,2.2,0,0,0,.8-.1A4.52,4.52,0,0,0,31,55.3a4.67,4.67,0,0,0,1.7.3,4.25,4.25,0,0,0,1.1-.2,4.86,4.86,0,0,0,4.4,2.8h0a4.76,4.76,0,0,0,3.4-1.4,8.78,8.78,0,0,0,3.9,1.1h.6A4.14,4.14,0,0,0,49,56.4l.1-.1a4.78,4.78,0,0,0,5.4-3.1h.7a4.9,4.9,0,0,0,2.8-.9A4.05,4.05,0,0,0,60,49h.6a4.84,4.84,0,0,0,2.6-.7,4.16,4.16,0,0,0,1.8-3,4.92,4.92,0,0,0-.4-2.1,97.6,97.6,0,0,1,15.6-5c0,.4.1.9.1,1.3S80,40.3,80,40.7Z"/><path id="bcd75eda-8d5e-477e-af69-6bf834680be1" data-name="Dedos (mano derecha)" class="a322019a-cf47-4a06-9709-d97af11e2eb6" d="M36.9,50.5l1.2-.3a3,3,0,0,1,.3,5.9h-.3a2.82,2.82,0,0,1-2.9-2.8c0-.7-.4-.8-.6-.8h0a.55.55,0,0,0-.5.3,2.67,2.67,0,0,1-1.4.7,2.92,2.92,0,0,1-.9-.2A2.25,2.25,0,0,1,30.2,51a.66.66,0,0,0-.1-.6c-.1-.1-.2-.1-.3-.2s-.4,0-.5.2a2.63,2.63,0,0,1-1.5.7A2.2,2.2,0,0,1,27,51a3.08,3.08,0,0,1-2.1-3.5c.1-.2,0-.4-.2-.6s-.5.1-.7.2a1.87,1.87,0,0,1-1.4.5,2.56,2.56,0,0,1-2.3-2.3,2.27,2.27,0,0,1,.6-1.6,2.36,2.36,0,0,1,1.6-.7,2.1,2.1,0,0,1,2.3,1.7v.1s.1.5.3.5a.85.85,0,0,0,.5-.3.1.1,0,0,1,.1-.1l.1-.1a2.67,2.67,0,0,1,2.6-1.1,3.4,3.4,0,0,1,1,.1,2.17,2.17,0,0,1,1.5,2.3.56.56,0,0,0,.5.6h0a.76.76,0,0,0,.5-.2,2.23,2.23,0,0,1,1.7-.9,3.08,3.08,0,0,1,1.3.3c2.1.7,1.1,3.5,1.1,3.5-.1.3-.3.9.1,1.2h.3a.75.75,0,0,1,.5-.1Z"/><path id="a50479f9-6c9e-4464-93a9-32539b6f9ab0" data-name="Mano derecha" class="a322019a-cf47-4a06-9709-d97af11e2eb6" d="M79.6,35.9a91.06,91.06,0,0,0-16.7,5.6c-3.9-3.3-12.8-11-15.2-12.8a13.5,13.5,0,0,0-3.3-1.9,4.4,4.4,0,0,0-1.6-.2,4.48,4.48,0,0,0-2,.4,15.66,15.66,0,0,0-4.7,3l-.1.1a11.35,11.35,0,0,1-3.9,2.5,6.75,6.75,0,0,1-1.4.2h0a3.67,3.67,0,0,1-2.5-.7c0-.1.1-.1.1-.2l3.4-3.7c2.6-2.7,5.1-5.2,10.8-5.3h.3a19.65,19.65,0,0,1,7.5,1.8,24.08,24.08,0,0,0,10.5,2.4A27.25,27.25,0,0,0,72,24.3C76,27.6,78.7,31.6,79.6,35.9Z"/><path id="a8f23234-0395-4c03-b596-ba0c01b1db99" data-name="Mano izquierda" class="a322019a-cf47-4a06-9709-d97af11e2eb6" d="M10.2,24.1h0a57,57,0,0,0,13,3.6h.4c.4,0,.9.1,1.3.1a16,16,0,0,0,3.8-.7c.5-.1,1-.3,1.5-.4l-.1.1-3.4,3.8a2,2,0,0,0-.5,2.2,2.17,2.17,0,0,0,1,1.1,7.35,7.35,0,0,0,3.8.9,4.68,4.68,0,0,0,1.6-.2c1.5-.3,3-1.6,4.7-2.9A17.94,17.94,0,0,1,41.7,29a5,5,0,0,1,1.2-.2h.3a6.66,6.66,0,0,1,3.3,1.5c2.7,2,14.3,12,15.6,13.1a2.36,2.36,0,0,1,.7,1.6,1.86,1.86,0,0,1-.9,1.5,2.69,2.69,0,0,1-1.5.5h0a2,2,0,0,1-1.3-.4l-.3-.3c-1.1-1-4.3-3.9-5.7-5a1.09,1.09,0,0,0-.9-.4.55.55,0,0,0-.5.3c-.3.4-.1.9.4,1.3l5.1,5a2.28,2.28,0,0,1,.6,1.2,2.14,2.14,0,0,1-1.1,1.9,4.42,4.42,0,0,1-1.6.6h0a2.38,2.38,0,0,1-1.2-.3l-.9-.8c-1.3-1.3-2.7-2.6-3.7-3.4a1.49,1.49,0,0,0-.9-.4h0a.66.66,0,0,0-.4,1.2.75.75,0,0,0,.3.3L52,51.9a1.09,1.09,0,0,1,0,1.5l-.1.2-.3.3a2.35,2.35,0,0,1-1.6.5h-.5c-.4-.1-.5-.2-.6-.2l-.1-.1c-1-1.1-2.2-2.1-3.3-3.1a1.27,1.27,0,0,0-.9-.4h0a.76.76,0,0,0-.5.2c-.3.3-.2.9.3,1.3l2.8,3.1h0a2.57,2.57,0,0,1-1.5.6h-.4a6.49,6.49,0,0,1-2.7-.8,5.82,5.82,0,0,0,.3-1.9,4.69,4.69,0,0,0-1.5-3.5A4.76,4.76,0,0,0,38,48.2a4.25,4.25,0,0,0-2.6-4.3,4.48,4.48,0,0,0-2-.4h0a5.85,5.85,0,0,0-1.3.2,4.75,4.75,0,0,0-2.3-1.9,5,5,0,0,0-4.3.5,4.1,4.1,0,0,0-3.1-1.4h0A4.3,4.3,0,0,0,19.6,42c-1.2-.8-5.2-3.2-15.2-5.3-.4-.1-1.4-.4-2.3-.6A22.67,22.67,0,0,1,10.2,24.1Z"/><path id="f3b78e0f-1029-43eb-b122-58d16c1405b1" data-name="Fondo de manos (superior)" class="b0bdce10-da67-4f3d-8f18-b2c73653b289" d="M40.7,14.4h.5a57.74,57.74,0,0,1,16,2.2l.3.1.7.2a41.91,41.91,0,0,1,12,5.9,23.81,23.81,0,0,1-9.4,2.1h-.2a22.41,22.41,0,0,1-9.5-2.2,21.43,21.43,0,0,0-8.3-1.9h-.4a14.74,14.74,0,0,0-9.5,3.4,18.62,18.62,0,0,0-4.7.9,8.66,8.66,0,0,1-3.2.6H23.8a68.58,68.58,0,0,1-11.6-3.1C19.4,17.5,29.8,14.5,40.7,14.4Z"/></svg>