<svg xmlns="http://www.w3.org/2000/svg" viewBox="0 0 81.84 56.64"><g id="ea117862-01dd-4dec-877f-934e497af9df"><g id="aed8f57a-bd95-4cff-8740-019b2ef5a410"><path d="M81.83,26.42C81.71,11.68,63.29-.19,40.69,0S-.12,12.36,0,27.11c0,.38,0,1.43,0,1.56.13,15.64,16.24,28.18,41.15,28C66.22,56.43,82,43.63,81.84,28Zm-40.7,25.5C19.4,52.1,1.7,41,1.58,27.08c0-.56,0-1.11.08-1.67l.25-1.7c0-.18.1-.36.14-.54.9.26,1.54.44,1.86.51,10,2.28,14,4.65,15.15,5.5a4.25,4.25,0,0,1,2.81-1.09h0A4.25,4.25,0,0,1,25,29.5a4.85,4.85,0,0,1,4.33-.44,4.21,4.21,0,0,1,2.33,1.88,4.75,4.75,0,0,1,3.37.25,4.29,4.29,0,0,1,2.54,4.38,4.93,4.93,0,0,1,4.83,4.94A5,5,0,0,1,42,42.38a6,6,0,0,0,3.13.76c1.07-.13,1.39-.48,1.46-.58l0,0-3-3.33c-.53-.49-.66-1-.34-1.35a.67.67,0,0,1,.52-.23,1.4,1.4,0,0,1,.86.44c1.64,1.36,3.6,3.38,3.62,3.41l0,.05s.17.15.58.23a3.27,3.27,0,0,0,.45,0A2.69,2.69,0,0,0,51,41.27a2.88,2.88,0,0,0,.31-.3l.12-.15a1.15,1.15,0,0,0-.08-1.45l-3.67-4.13s-.14-.14-.27-.3c-.4-.53-.22-.89-.07-1a.68.68,0,0,1,.5-.22,1.54,1.54,0,0,1,.91.45c1,.82,2.32,2.14,3.61,3.41l.82.8a2.31,2.31,0,0,0,1.26.37,3,3,0,0,0,1.65-.55,2.07,2.07,0,0,0,1.09-1.87,2.1,2.1,0,0,0-.62-1.19l-5-5.08c-.52-.45-.67-1-.37-1.36a.69.69,0,0,1,.53-.24,1.52,1.52,0,0,1,.9.45c.9.76,2.81,2.46,5.67,5.08a3,3,0,0,1,.28.26,2.46,2.46,0,0,0,1.3.36,2.87,2.87,0,0,0,1.52-.47,1.78,1.78,0,0,0,.89-1.41A2.15,2.15,0,0,0,61.57,31C60.23,29.85,48.7,19.77,46,17.75a6.58,6.58,0,0,0-3.29-1.58,1.51,1.51,0,0,0-.3,0,4.93,4.93,0,0,0-1.19.16A14.92,14.92,0,0,0,36.81,19c-1.65,1.3-3.19,2.53-4.7,2.87a6.26,6.26,0,0,1-1.53.15,7.51,7.51,0,0,1-3.82-1,2.77,2.77,0,0,1-1-1.13,2,2,0,0,1,.53-2.19L29.76,14l.07-.08c-.5.12-1,.26-1.51.4a14.53,14.53,0,0,1-3.83.71h0c-.44,0-.86,0-1.28-.07l-.41,0a58.28,58.28,0,0,1-12.69-3.63l0,0,1.41-1.08C18.7,5,29.1,1.68,40.71,1.58c12-.1,22.76,3.25,30,8.6l1.39,1.09.27.24-.45.21a27.41,27.41,0,0,1-11.49,2.74h0A24,24,0,0,1,49.9,11.92a20,20,0,0,0-7.53-1.79h-.28c-5.71.13-8.21,2.62-10.85,5.25l-3.41,3.67a.69.69,0,0,0-.11.18,3.71,3.71,0,0,0,2.53.75,6.69,6.69,0,0,0,1.41-.15c1-.23,2.47-1.37,3.85-2.46l.1-.08a16.37,16.37,0,0,1,4.73-3,6.65,6.65,0,0,1,2-.34h0a5.52,5.52,0,0,1,1.63.25,11.08,11.08,0,0,1,3.24,1.89C49.58,17.85,57.7,24.91,62.42,29a97,97,0,0,1,17.49-5.71v0c0,.06,0,.12,0,.18l.24,1.7c0,.41.06.83.06,1.25C80.38,40.32,62.86,51.74,41.13,51.92Z"/><path d="M37.51,37.39h0a4,4,0,0,0-1.25.28,1.82,1.82,0,0,1-.46.12h-.07l-.09,0a.28.28,0,0,1-.12-.18c-.09-.14-.06-.36.1-.76a4.41,4.41,0,0,0,.08-2.63,2.39,2.39,0,0,0-1.31-1.31A3.43,3.43,0,0,0,33,32.55a2.54,2.54,0,0,0-1.84.78.41.41,0,0,1-.29.15.31.31,0,0,1-.27-.22.52.52,0,0,1-.07-.21,3,3,0,0,0-.17-.84,2.36,2.36,0,0,0-1.56-1.43,3.74,3.74,0,0,0-1.08-.17,3.68,3.68,0,0,0-2.91,1.59l-.37.58v-.11h0c-.08,0-.09-.67-.09-.67a3,3,0,0,0-.09-.43,2.49,2.49,0,0,0-4.84.84,2.65,2.65,0,0,0,.17.89,2.52,2.52,0,0,0,2.29,1.51,3.87,3.87,0,0,0,1.73-.7c.16-.08.32-.09.37,0a.37.37,0,0,1,.06.21.38.38,0,0,1,0,.22,4.21,4.21,0,0,0,.1,1.85,3.16,3.16,0,0,0,2,1.94,2.44,2.44,0,0,0,.86.17,2.69,2.69,0,0,0,1.56-.55.47.47,0,0,1,.31-.13.31.31,0,0,1,.23.1.28.28,0,0,1,.07.19.52.52,0,0,1,0,.3,2.2,2.2,0,0,0,.05.82,2.65,2.65,0,0,0,1.69,1.57A2.76,2.76,0,0,0,32,41a2.28,2.28,0,0,0,1.58-.71.59.59,0,0,1,.39-.2.31.31,0,0,1,.31.29.87.87,0,0,1,.08.36,3.1,3.1,0,0,0,.25,1.1,3.18,3.18,0,0,0,2.9,1.84,3.21,3.21,0,0,0,3.22-3.2,3.06,3.06,0,0,0-.24-1.17A3.24,3.24,0,0,0,37.51,37.39Z"/></g></g></svg>